<svg xmlns="http://www.w3.org/2000/svg" width="18" height="16" fill="none" viewBox="0 0 18 16">
  <path fill="#F3F6F6" stroke="#95ABB2" stroke-width="1.5" d="M8.77 1.508a.25.25 0 01.46 0l1.488 3.575a1.75 1.75 0 001.476 1.073l3.86.31a.25.25 0 01.143.438l-2.941 2.52a1.75 1.75 0 00-.564 1.735l.899 3.766a.25.25 0 01-.374.272l-3.305-2.019a1.75 1.75 0 00-1.824 0l-3.305 2.019a.25.25 0 01-.373-.271l.898-3.767a1.75 1.75 0 00-.564-1.735l-2.94-2.52a.25.25 0 01.142-.439l3.86-.31a1.75 1.75 0 001.476-1.072l1.487-3.575z"/>
</svg>
