<svg xmlns="http://www.w3.org/2000/svg" width="66" height="60" fill="none" viewBox="0 0 66 60">
  <path fill="#C1892A" d="M12.874 50.84c0 .984-.082 1.804-.246 2.46a.628.628 0 01-.287.451.627.627 0 01-.451.205.627.627 0 01-.451-.205c-.3-.3-.451-.916-.451-1.845v-1.23c0-.547-.014-.957-.041-1.23 0-.11-.123-.164-.369-.164l-.656.041H7.421l-2.624.041c-.437 0-1.093-.027-1.968-.082l-.615-.041V51.988c0 .164-.041.396-.123.697a4.933 4.933 0 00-.082.738c-.027 0-.068.041-.123.123a2 2 0 00-.123.205.67.67 0 01-.492.205.572.572 0 01-.246-.041c-.273-.082-.437-.273-.492-.574a6.609 6.609 0 01-.082-1.148V50.02L.41 48.79c0-.629.096-1.039.287-1.23.137-.164.355-.246.656-.246.055 0 .137.027.246.082a.66.66 0 00.287.082h.041l.451-.041c.027 0 .041-.082.041-.246 0-2.952.219-6.546.656-10.783.273-2.87.547-7.148.82-12.833.055-.875.137-1.831.246-2.87.11-1.066.178-1.804.205-2.214.164-1.257.273-2.2.328-2.829.055-.601.082-1.039.082-1.312.11-1.12.205-2.009.287-2.665.027-.164.055-.437.082-.82.055-.383.123-.67.205-.861-.765 0-1.271-.096-1.517-.287-.273-.219-.41-.478-.41-.779 0-.3.137-.533.41-.697.246-.137.67-.205 1.271-.205h.615c.082 0 .191-.041.328-.123a.735.735 0 01.369-.123c.3 0 .52.191.656.574.164.355.273.697.328 1.025.055.328.096.533.123.615.273 1.367.478 3.089.615 5.166l.287 3.075c.082.683.178 1.708.287 3.075.055.738.164 1.818.328 3.239.055.601.082 1.052.082 1.353.027.219.055.67.082 1.353.055.656.137 1.257.246 1.804.246 1.23.396 2.474.451 3.731.082 1.257.137 2.843.164 4.756l.041 1.886c.027.71.15 1.804.369 3.28.082.683.123 1.736.123 3.157V47.191c0 .082.014.137.041.164.027.055.082.082.164.082.164.055.3.082.41.082a.834.834 0 01.615-.246c.219 0 .424.068.615.205.273.219.41.615.41 1.189l.041 2.173zm-4.428-3.485c-.055-.219-.082-.601-.082-1.148v-1.148l.041-2.214c0-.683-.027-1.449-.082-2.296-.055-.875-.096-1.476-.123-1.804l-.082-.984-.041-1.025a38.83 38.83 0 01-.082-2.05c0-.847-.096-1.845-.287-2.993l-.123-.902a21.972 21.972 0 01-.041-1.558c0-.71-.027-1.23-.082-1.558a36.165 36.165 0 00-.164-1.804c-.191-2.433-.465-5.808-.82-10.127a610.705 610.705 0 00-.574 8.528L4.428 47.355h4.018zm18.823-25.83c0 1.039-.013 1.804-.04 2.296l-.083 2.255a1.242 1.242 0 00-.04.369v.615c-.028.027-.042.082-.042.164v.656c-.027.027-.04.082-.04.164v.738c-.028.055-.042.178-.042.369v.41c0 .328-.014.533-.04.615v1.353c-.028.3-.07.765-.124 1.394a39.81 39.81 0 00-.04 1.722c0 .11-.014.178-.042.205v2.952c.027.082.041.232.041.451v.492c.027.055.041.191.041.41v.287c.027.055.041.15.041.287v.369c0 .055.014.096.041.123V41c0 .055.014.096.041.123v2.009a.57.57 0 00-.04.246v.451l-.042.041v.164a3.709 3.709 0 00-.04.656l-.124.697v.041l-.04.082c-.028.027-.042.082-.042.164s-.014.137-.04.164v.041c0 .055-.015.096-.042.123v.123c-.027 0-.04.014-.04.041l-.124.41-.164.41v.123h-.04v.041l-.042.082c-.11.191-.177.314-.205.369v.041l-.082.164-.082.082v.041c-.027 0-.04.014-.04.041l-.329.41-.082.082a2.773 2.773 0 01-.45.328l-.165.082-.082.041h-.082l-.246.082-.164.082h-.082l-.04.041a.572.572 0 01-.247.041l-.287.082-.779.123c-.82.11-1.667.164-2.542.164-.137 0-.219-.014-.246-.041h-.164c-.027-.027-.068-.041-.123-.041a1.824 1.824 0 01-.45-.164 3.009 3.009 0 01-1.149-.902l-.164-.205-.082-.164-.04-.082-.083-.082v-.082c-.027 0-.04-.014-.04-.041l-.083-.164-.04-.082-.042-.082c-.027 0-.04-.014-.04-.041l-.247-.615a.57.57 0 01-.04-.246c-.028-.027-.042-.068-.042-.123 0-.027-.013-.055-.04-.082-.028-.027-.042-.068-.042-.123v-.082c-.027 0-.04-.014-.04-.041 0-.055-.014-.082-.042-.082v-.082c0-.055-.014-.096-.04-.123v-.123a1.34 1.34 0 01-.083-.328l-.082-.328-.164-1.312v-.287c-.027-.027-.04-.068-.04-.123v-.369c-.028-.027-.042-.082-.042-.164v-.697l-.04-.082V39.77c0-.273.013-.478.04-.615v-1.271c.027-.11.041-.287.041-.533v-.492c0-.191.014-.314.041-.369v-.902l.041-.041c0-.11.027-.547.082-1.312.082-.765.123-1.298.123-1.599 0-.164-.014-.26-.04-.287v-.369h-.247c-.164 0-.26-.014-.287-.041h-.246c-.054 0-.095-.014-.123-.041h-.164c-.027-.027-.068-.041-.123-.041-.027 0-.054-.014-.082-.041-.164 0-.273-.027-.328-.082h-.082v-.041h-.04c-.028 0-.042-.014-.042-.041h-.082v-.041h-.04l-.083-.082-.082-.041-.164-.164-.04-.082-.042-.041v-.082c0-.027-.014-.041-.04-.041v-.164c0-.246.081-.424.245-.533a.645.645 0 01.246-.164c.055-.055.096-.082.123-.082l.082-.041h.041l.287-.082c.055 0 .096-.014.123-.041h.205c.027-.027.123-.041.287-.041l.082-.041h1.107c.055 0 .096.014.123.041h.41c.027.027.069.041.123.041l.041.041h.082c0 .027.014.041.041.041 0 .027.014.041.041.041l.041.041c.027 0 .041.014.041.041h.041v.041h.041l.082.082c0 .027.014.041.041.041v.041h.041v.082l.082.082v.041c0 .027.014.041.041.041v.041l.041.041v.041c0 .027.014.041.041.041v.041l.123.492v.082l.041.082v.205l-.04.615-.083 1.312c-.027.219-.054.56-.082 1.025v1.722c-.027.027-.04.096-.04.205v.697c0 .164-.014.287-.042.369v1.189c-.027 0-.04.014-.04.041v2.583l.081 1.353c.055.656.11 1.162.164 1.517a.572.572 0 01.041.246c0 .082.041.287.123.615l.082.328c0 .055.014.096.041.123v.082c.082.3.233.642.451 1.025l.082.082.041.082.041.041.041.082.123.123.082.082h.041c0 .027.014.041.041.041l.041.041h.041l.082.041c.027 0 .041.014.041.041.082 0 .137.014.164.041h.164c.246 0 .588-.055 1.025-.164a5.841 5.841 0 001.066-.287l.37-.123.327-.164c.027 0 .055-.014.082-.041.055 0 .082-.014.082-.041h.041l.082-.041.082-.082h.041c.027 0 .041-.014.041-.041h.041l.041-.041c.027 0 .041-.014.041-.041l.451-.369.082-.205.082-.082v-.082c.027 0 .041-.027.041-.082 0-.055.014-.082.041-.082v-.164h.041V45.1c.027 0 .041-.027.041-.082 0-.082.014-.137.041-.164l.123-.861c.055-.71.082-1.257.082-1.64v-1.23c-.027-.082-.04-.232-.04-.451 0-.246-.014-.41-.042-.492v-.492a1.436 1.436 0 01-.04-.41v-.369c-.028-.055-.042-.205-.042-.451v-.328l-.04-.082v-1.804c0-.055.013-.096.04-.123v-.697l.041-.041v-.656l.041-.041v-.369-.246a3.4 3.4 0 00.041-.615c.082-1.476.123-2.16.123-2.05 0-.383.014-.67.041-.861v-.861c0-.355.014-.629.041-.82v-.779c0-.246.014-.437.041-.574v-.533c0-.137.014-.246.041-.328v-.287h-1.68l-.083.041h-.656c-.055 0-.096.014-.123.041h-.615l-.04.041h-.452a.704.704 0 00-.287.041h-.41c-.027.027-.11.041-.246.041h-.369c-.055 0-.096.014-.123.041h-.246c-.3 0-.492.014-.574.041h-1.107l-.246-.082h-.123c0-.027-.014-.041-.04-.041l-.042-.041c-.027 0-.04-.014-.04-.041h-.042l-.082-.082h-.04v-.041c-.11-.11-.247-.3-.41-.574a6.528 6.528 0 01-.452-1.353 1.436 1.436 0 01-.04-.41l-.083-.41v-.164h-.04v-1.107c.026-.027.04-.096.04-.205v-.41l.041-.082v-.451l.041-.082c.082-1.285.123-2.405.123-3.362 0-.465-.027-1.216-.082-2.255l-.04-1.148c-.028-.055-.042-.191-.042-.41v-1.517c0-.164.014-.287.041-.369V11.316c0-.219.027-.465.082-.738v-.328h-.328v.041h-.82c-.027 0-.04-.014-.04-.041h-.247l-.04-.041h-.083l-.246-.082-.164-.082-.082-.123-.082-.041v-.082c-.027 0-.04-.014-.04-.041l-.042-.041v-.041l-.04-.082v-.082l-.042-.041V9.02h.041v-.082l.123-.246c0-.055.027-.082.082-.082l.041-.082h.041v-.041h.041v-.041h.041l.082-.041.041-.041h.041l.082-.041h.041c.027-.027.069-.041.123-.041h.041l.041-.041h.246l.041-.041h.984c.355 0 .683.055.984.164h.123l.082.041c.055.055.137.082.246.082.027 0 .096.055.205.164.246.11.37.314.37.615 0 .3-.083.478-.247.533 0 .082.014.15.041.205l.041.492c0 .219.027.437.082.656v.328c0 .082.014.137.041.164v.492c0 .055.014.082.041.082v.697c0 .055.014.096.041.123v1.189a.572.572 0 01.041.246v2.788c0 .492-.014 1.134-.04 1.927 0 .793-.014 1.435-.042 1.927v.287a1.064 1.064 0 00-.04.328v.164c-.028.027-.042.082-.042.164v.328a1.242 1.242 0 00-.04.369v1.312c.026.027.04.068.04.123 0 .137.041.246.123.328l.041.082.041.041c0 .027.014.041.041.041.027 0 .041.014.041.041h.082c.027 0 .041-.014.041-.041h4.06v.041h.327l.082.041h.37l.04.041h.41c.192 0 .3-.014.328-.041h.246l.082-.041h.205l.082-.041h.123v-.123l.041-.082v-.369c.027-.055.041-.164.041-.328v-.287h.041v-.123c.027-.246.041-.588.041-1.025v-1.763a4.867 4.867 0 01-.04-.738c-.028-.082-.042-.246-.042-.492v-3.485a.57.57 0 01-.04-.246V13.12c0-.027.013-.041.04-.041v-1.517h.041v-.902c0-.082.014-.137.041-.164v-.697c.027-.082.041-.287.041-.615 0-.191.055-.342.164-.451l.246-.246.082-.041h.041l.082-.041h.082l.041-.041h.287c0 .027.014.041.041.041h.041l.041.041h.041c0 .027.014.041.041.041v.041h.041l.041.041.041.082v.041l.041.041c0 .082.027.123.082.123v.082c.027.027.041.068.041.123l.041.041v.082l.041.041c.082.465.137.793.164.984v.287c0 .055.014.096.041.123v.615c0 .273.014.451.041.533 0 .3-.014.492-.04.574v1.107l.04 2.419.041 5.658zm-.328 10.209v-.205.205zm19.342 10.537a49.832 49.832 0 01-.041-2.378 51.04 51.04 0 01-.041-2.419v-2.378c0-2.105-.069-4.524-.205-7.257a38.797 38.797 0 01-.082-2.05l-.082-2.091v-.656a3.4 3.4 0 00-.041-.615v-2.296a3.4 3.4 0 01.04-.615v-.656a3.4 3.4 0 01.042-.615v-.861a3.4 3.4 0 00.04-.615v-3.116c0-.492-.013-.861-.04-1.107 0-1.039-.041-1.927-.123-2.665v-.082c-.028 0-.041-.014-.041-.041a6.167 6.167 0 00-.164-1.025c-.028 0-.041-.014-.041-.041-.246-.328-.479-.492-.697-.492a1.1 1.1 0 00-.656.205c-.356.3-.533.82-.533 1.558 0 1.94.109 4.797.328 8.569.218 3.717.328 6.533.328 8.446 0 1.394-.028 3.485-.082 6.273a157.985 157.985 0 00-.123 6.232v2.091c0 1.066.027 2.364.082 3.895v1.763l-.82-.082-1.722-.123h-.902v-2.05c0-1.968-.041-3.963-.123-5.986-.11-2.132-.192-4.264-.246-6.396a3.719 3.719 0 01-.041-.656v-1.107a2.187 2.187 0 01-.041-.492v-1.681c0-.465.027-1.107.082-1.927.054-.82.082-1.408.082-1.763 0-.246-.028-.67-.082-1.271l-.082-.984a9.157 9.157 0 01-.041-1.025v-1.23a53.595 53.595 0 01-.082-2.378 11.509 11.509 0 01-.041-1.148v-.574c0-.246.013-.437.04-.574v-.615c0-.246.014-.437.042-.574l.082-1.189c0-.547.013-.957.04-1.23v-1.025c0-.219-.04-.424-.122-.615 0-.11-.041-.178-.123-.205a.666.666 0 00-.328-.287c-.11-.055-.274-.082-.492-.082-.192 0-.37.041-.533.123-.328.191-.492.492-.492.902v.492c0 .219.013.383.04.492 0 .437.014.752.042.943l.082.984c.109.847.164 1.736.164 2.665v1.394c0 .629.013 1.093.04 1.394v3.321l-.081.943a3.645 3.645 0 00-.082.697v.369c0 .492.013.847.04 1.066l.083 1.107c.082.601.123 1.257.123 1.968v4.182l-.041 8.364c-.028.93-.041 2.337-.041 4.223v1.394h-3.65c.028-.082.042-.232.042-.451a1.44 1.44 0 01-.041-.41v-2.788a62.06 62.06 0 00-.041-2.665v-2.788a67.976 67.976 0 01-.041-2.788c0-2.296-.055-4.373-.164-6.232a48.839 48.839 0 01-.082-2.378l-.123-2.337v-.738a4.88 4.88 0 00-.041-.738v-2.829c0-.383.013-.67.04-.861v-1.148c.028-.191.042-.465.042-.82V12.71a12.093 12.093 0 01-.041-1.189c0-1.175-.082-2.023-.246-2.542v-.123c0-.137-.028-.287-.082-.451-.055-.164-.123-.273-.205-.328-.082-.055-.274-.137-.574-.246l-.492-.041H31.974c-.246 0-.506.041-.78.123a1.83 1.83 0 00-.655.246c-.11.027-.205.11-.287.246a.791.791 0 00-.123.41c0 .383.205.642.615.779l.369.123c.492.082.751.123.779.123h.369c-.028.629-.014 1.544.04 2.747.11 2.597.22 4.496.329 5.699l.164 2.952c.082 1.913.123 3.827.123 5.74 0 1.367-.028 3.444-.082 6.232a159.026 159.026 0 00-.123 6.273v2.009c0 .902.013 1.585.04 2.05v3.608a1.44 1.44 0 00-.41.041c-.437.027-.724.178-.86.451-.082.082-.123.219-.123.41a.72.72 0 00.205.533l.164.123.574.205h.164c.082.027.205.041.369.041a.91.91 0 01.287.041c.164.246.423.369.779.369.273 0 .464-.082.574-.246.492-.055.86-.082 1.107-.082l2.214.041c.246.027.6.041 1.066.041.082.273.287.41.615.41h.205c.027-.027.068-.041.123-.041.054 0 .095-.014.123-.041.164-.055.314-.178.45-.369a34.694 34.694 0 012.01-.082 9.857 9.857 0 011.025-.041c.218 0 .546-.027.984-.082l.04.041.124.164a.95.95 0 00.697.287.903.903 0 00.656-.287.777.777 0 00.287-.615c0-.574.013-1.011.04-1.312.028-.3.042-.738.042-1.312v-3.567zm17.85 6.232c0-1.421-.137-2.802-.41-4.141-.055-.437-.11-.779-.164-1.025a58.439 58.439 0 00-.492-3.034l-.574-3.772c-.437-2.405-.724-4.196-.861-5.371l-.205-1.353c-.273-1.695-.41-3.007-.41-3.936 0-.601-.082-1.23-.246-1.886a27.003 27.003 0 01-.287-1.271 23.837 23.837 0 01-.369-2.378 7.26 7.26 0 00-.164-1.148c-.082-.383-.15-.697-.205-.943l-.164-.82c-.246-.984-.383-1.845-.41-2.583-.055-1.64-.205-3.061-.451-4.264l-.123-.574a2.349 2.349 0 00-.123-.41 3.778 3.778 0 01-.123-.451c-.055-.52-.492-.779-1.312-.779l-.738-.041c-.574 0-1.08.082-1.517.246-.437.137-.656.396-.656.779s.123.629.369.738c.273.11.574.178.902.205.355.027.629.055.82.082-.11.574-.178.97-.205 1.189-.219 1.039-.355 1.831-.41 2.378-.273 1.913-.465 3.458-.574 4.633-.055.765-.15 1.913-.287 3.444-.055.246-.11.56-.164.943-.027.383-.096.82-.205 1.312 0 .082-.014.178-.041.287 0 .11-.027.191-.082.246-.027.027-.096.041-.205.041-.137 0-.3-.014-.492-.041a4.06 4.06 0 00-.574-.041c-.601 0-1.011.137-1.23.41a1.1 1.1 0 00-.205.656c0 .629.465.943 1.394.943.3 0 .642-.027 1.025-.082l-1.681 9.471a554.24 554.24 0 00-1.271 7.749c-.027.137-.068.451-.123.943-.027.492-.11.93-.246 1.312 0 .164-.027.369-.082.615-.055.273-.096.492-.123.656l-.041.451c0 .246.041.492.123.738.082.328.232.574.451.738.246.191.52.246.82.164.273-.082.451-.205.533-.369.11-.164.178-.369.205-.615l.123-.492c.219-.902.369-1.722.451-2.46l.287-1.968c.164-1.312.3-2.296.41-2.952.492-3.335.847-5.836 1.066-7.503.191-1.175.451-2.911.779-5.207l.164-1.271c.027-.027.246-.027.656 0 .41.027.724.055.943.082l.861.082h.41c.246 0 .383.041.41.123l.164.656c.219 1.148.437 2.87.656 5.166l.246 2.337c.055.601.164 1.503.328 2.706l.164 1.353.246 1.722.287 2.542c.055.437.082.765.082.984.055.629.123 1.271.205 1.927.11.656.26 1.244.451 1.763.11.383.246.67.41.861.164.191.437.287.82.287.273 0 .506-.068.697-.205.191-.11.287-.3.287-.574zm-5.576-23.78c-.191.027-.533.068-1.025.123-.492.027-.984.041-1.476.041.137-.82.273-1.9.41-3.239.164-1.34.273-2.269.328-2.788.055-.437.137-1.244.246-2.419.11-1.203.232-2.187.369-2.952 0 .191.014.424.041.697.055.273.096.506.123.697l.123 1.107c.027.3.096.847.205 1.64.164.902.383 3.266.656 7.093z"/>
</svg>
