<svg xmlns="http://www.w3.org/2000/svg" width="60" height="60" fill="none" viewBox="0 0 55 60">
  <path fill="#C1892A" d="M10.676 47.16c0 .816-.068 1.496-.204 2.04a.52.52 0 01-.238.374.52.52 0 01-.374.17.52.52 0 01-.374-.17c-.25-.25-.374-.76-.374-1.53v-1.02c0-.453-.011-.793-.034-1.02 0-.09-.102-.136-.306-.136l-.544.034H6.154l-2.176.034c-.363 0-.907-.023-1.632-.068l-.51-.034v2.278c0 .136-.034.329-.102.578a4.092 4.092 0 00-.068.612c-.023 0-.057.034-.102.102-.045.068-.08.125-.102.17a.557.557 0 01-.408.17.473.473 0 01-.204-.034c-.227-.068-.363-.227-.408-.476a5.48 5.48 0 01-.068-.952V46.48L.34 45.46c0-.521.08-.861.238-1.02.113-.136.295-.204.544-.204.045 0 .113.023.204.068.09.045.17.068.238.068h.034l.374-.034c.023 0 .034-.068.034-.204 0-2.448.181-5.429.544-8.942.227-2.38.453-5.927.68-10.642.045-.725.113-1.519.204-2.38.09-.884.147-1.496.17-1.836.136-1.043.227-1.825.272-2.346.045-.499.068-.861.068-1.088.09-.93.17-1.666.238-2.21.023-.136.045-.363.068-.68.045-.317.102-.555.17-.714-.635 0-1.054-.08-1.258-.238-.227-.181-.34-.397-.34-.646 0-.25.113-.442.34-.578.204-.113.555-.17 1.054-.17h.51a.581.581 0 00.272-.102.61.61 0 01.306-.102c.25 0 .43.159.544.476.136.295.227.578.272.85.045.272.08.442.102.51.227 1.133.397 2.561.51 4.284l.238 2.55c.068.567.147 1.417.238 2.55.045.612.136 1.507.272 2.686.045.499.068.873.068 1.122.023.181.045.555.068 1.122.045.544.113 1.043.204 1.496.204 1.02.329 2.051.374 3.094a80.2 80.2 0 01.136 3.944l.034 1.564c.023.59.125 1.496.306 2.72.068.567.102 1.44.102 2.618v1.088c0 .068.011.113.034.136.023.045.068.068.136.068.136.045.25.068.34.068a.692.692 0 01.51-.204c.181 0 .351.057.51.17.227.181.34.51.34.986l.034 1.802zm-3.672-2.89c-.045-.181-.068-.499-.068-.952v-.952l.034-1.836c0-.567-.023-1.201-.068-1.904A86.4 86.4 0 006.8 37.13l-.068-.816-.034-.85a32.208 32.208 0 01-.068-1.7c0-.703-.08-1.53-.238-2.482l-.102-.748a18.217 18.217 0 01-.034-1.292c0-.59-.023-1.02-.068-1.292a29.99 29.99 0 00-.136-1.496 2486.75 2486.75 0 00-.68-8.398 506.375 506.375 0 00-.476 7.072L3.672 44.27h3.332zm15.61-21.42c0 .861-.012 1.496-.035 1.904l-.067 1.87a1.03 1.03 0 00-.035.306v.51c-.022.023-.034.068-.034.136v.544c-.022.023-.034.068-.034.136v.612c-.022.045-.034.147-.034.306v.34c0 .272-.01.442-.034.51v1.122l-.102 1.156c-.022.521-.034.997-.034 1.428 0 .09-.01.147-.033.17v2.448c.022.068.034.193.034.374v.408c.022.045.034.159.034.34v.238a.585.585 0 01.034.238v.306c0 .045.01.08.034.102V39c0 .045.01.08.034.102v1.666a.473.473 0 00-.034.204v.374l-.035.034v.136a3.078 3.078 0 00-.034.544l-.102.578v.034l-.034.068c-.022.023-.034.068-.034.136s-.01.113-.034.136v.034c0 .045-.01.08-.034.102v.102c-.022 0-.034.011-.034.034l-.101.34-.136.34v.102h-.035v.034l-.034.068c-.09.159-.147.26-.17.306v.034l-.067.136-.069.068v.034c-.022 0-.034.011-.034.034l-.272.34-.067.068a2.295 2.295 0 01-.374.272l-.137.068-.067.034h-.069l-.204.068-.136.068h-.068l-.034.034a.473.473 0 01-.204.034l-.238.068-.646.102c-.68.09-1.382.136-2.107.136-.114 0-.182-.011-.204-.034h-.136c-.023-.023-.057-.034-.102-.034a1.514 1.514 0 01-.374-.136 2.496 2.496 0 01-.952-.748l-.136-.17-.069-.136-.034-.068-.068-.068v-.068c-.022 0-.034-.011-.034-.034l-.068-.136-.034-.068-.034-.068c-.022 0-.034-.011-.034-.034l-.204-.51a.473.473 0 01-.034-.204c-.022-.023-.033-.057-.033-.102 0-.023-.012-.045-.034-.068-.023-.023-.035-.057-.035-.102v-.068c-.022 0-.034-.011-.034-.034 0-.045-.01-.068-.034-.068v-.068c0-.045-.01-.08-.034-.102v-.102a1.11 1.11 0 01-.068-.272l-.068-.272-.135-1.088v-.238c-.023-.023-.034-.057-.034-.102v-.306c-.023-.023-.035-.068-.035-.136v-.578l-.034-.068V37.98c0-.227.012-.397.034-.51v-1.054a2.03 2.03 0 00.034-.442v-.408c0-.159.012-.26.035-.306v-.748l.034-.034c0-.09.022-.453.067-1.088.069-.635.102-1.077.102-1.326 0-.136-.01-.215-.034-.238v-.306h-.204c-.135 0-.215-.011-.237-.034h-.204c-.046 0-.08-.011-.103-.034h-.136c-.022-.023-.056-.034-.101-.034-.023 0-.046-.011-.069-.034-.136 0-.226-.023-.271-.068h-.069v-.034h-.034c-.022 0-.033-.011-.033-.034h-.069v-.034h-.034l-.068-.068-.068-.034-.136-.136-.034-.068-.034-.034v-.068c0-.023-.01-.034-.034-.034v-.136c0-.204.069-.351.205-.442a.536.536 0 01.204-.136c.045-.045.079-.068.101-.068l.069-.034h.034l.237-.068c.046 0 .08-.011.102-.034h.17c.023-.023.103-.034.239-.034l.068-.034h.918c.045 0 .079.011.101.034h.34c.023.023.057.034.103.034l.034.034h.068c0 .023.01.034.034.034 0 .023.01.034.034.034l.034.034c.022 0 .034.011.034.034h.034v.034h.034l.067.068c0 .023.012.034.034.034v.034h.035v.068l.068.068v.034c0 .023.01.034.034.034v.034l.034.034v.034c0 .023.01.034.034.034v.034l.101.408v.068l.034.068v.17l-.034.51-.068 1.088c-.022.181-.045.465-.068.85v1.428c-.022.023-.034.08-.034.17v.578c0 .136-.01.238-.034.306v.986c-.022 0-.034.011-.034.034v2.142l.068 1.122c.046.544.091.963.136 1.258a.474.474 0 01.034.204c0 .068.034.238.102.51l.068.272c0 .045.012.08.034.102v.068c.069.25.193.533.374.85l.069.068.034.068.034.034.034.068.102.102.067.068h.035c0 .023.01.034.034.034l.034.034h.034l.067.034c.023 0 .035.011.035.034.067 0 .113.011.136.034h.136c.204 0 .487-.045.85-.136a4.84 4.84 0 00.883-.238l.306-.102.273-.136c.022 0 .045-.011.067-.034.046 0 .069-.011.069-.034h.034l.067-.034.069-.068h.034c.022 0 .034-.011.034-.034h.034l.034-.034c.022 0 .034-.011.034-.034l.373-.306.069-.17.067-.068v-.068c.023 0 .035-.023.035-.068 0-.045.01-.068.034-.068v-.136h.034v-.17c.022 0 .034-.023.034-.068 0-.068.01-.113.034-.136l.102-.714c.045-.59.068-1.043.068-1.36v-1.02a1.367 1.367 0 01-.035-.374c0-.204-.01-.34-.034-.408v-.408a1.192 1.192 0 01-.034-.34v-.306c-.022-.045-.034-.17-.034-.374v-.272l-.034-.068v-1.496c0-.045.012-.08.034-.102v-.578l.035-.034v-.544l.034-.034v-.306-.204c.022-.113.034-.283.034-.51.067-1.224.101-1.79.101-1.7 0-.317.012-.555.034-.714v-.714c0-.295.012-.521.035-.68v-.646c0-.204.01-.363.034-.476v-.442c0-.113.01-.204.034-.272v-.238h-1.395l-.068.034h-.544c-.045 0-.079.011-.102.034h-.51l-.034.034h-.373a.583.583 0 00-.239.034h-.34c-.022.023-.09.034-.204.034h-.305c-.046 0-.08.011-.102.034h-.204c-.25 0-.409.011-.476.034h-.918l-.204-.068h-.103c0-.023-.01-.034-.034-.034l-.034-.034c-.022 0-.034-.011-.034-.034h-.034l-.067-.068h-.034v-.034c-.091-.09-.205-.25-.34-.476a5.411 5.411 0 01-.375-1.122 1.192 1.192 0 01-.034-.34l-.068-.34v-.136h-.034v-.918c.023-.023.034-.08.034-.17v-.34l.034-.068v-.374l.035-.068c.068-1.065.101-1.995.101-2.788 0-.385-.022-1.009-.068-1.87l-.034-.952c-.022-.045-.034-.159-.034-.34v-1.258c0-.136.012-.238.035-.306V14.384c0-.181.022-.385.068-.612V13.5h-.272v.034h-.68c-.023 0-.034-.011-.034-.034h-.204l-.034-.034h-.069l-.204-.068-.135-.068-.069-.102-.068-.034v-.068c-.022 0-.034-.011-.034-.034l-.034-.034v-.034l-.034-.068v-.068l-.034-.034v-.374h.034v-.068l.102-.204c0-.045.023-.068.068-.068l.034-.068h.035v-.034h.034v-.034h.034l.067-.034.035-.034h.034l.068-.034h.034c.022-.023.056-.034.101-.034h.035l.034-.034h.204l.034-.034h.816c.294 0 .566.045.816.136h.101l.069.034c.045.045.113.068.204.068.022 0 .079.045.17.136.204.09.306.26.306.51s-.068.397-.204.442c0 .068.01.125.034.17l.034.408c0 .181.022.363.068.544v.272c0 .068.01.113.034.136v.408c0 .045.01.068.034.068v.578c0 .045.01.08.034.102v.986a.474.474 0 01.034.204v2.312c0 .408-.012.94-.035 1.598 0 .657-.01 1.19-.034 1.598v.238a.884.884 0 00-.034.272v.136c-.022.023-.034.068-.034.136v.272a1.03 1.03 0 00-.034.306v1.088c.023.023.035.057.035.102 0 .113.034.204.101.272l.034.068.035.034c0 .023.01.034.034.034.022 0 .034.011.034.034h.068c.022 0 .034-.011.034-.034h3.366v.034h.271l.069.034h.306l.034.034h.34c.158 0 .249-.011.271-.034h.204l.069-.034h.17l.067-.034h.102v-.102l.034-.068v-.306c.023-.045.035-.136.035-.272v-.238h.034v-.102c.022-.204.034-.487.034-.85v-1.462a4.04 4.04 0 01-.034-.612c-.023-.068-.034-.204-.034-.408v-2.89a.473.473 0 01-.035-.204V15.88c0-.023.012-.034.035-.034v-1.258h.034v-.748c0-.068.01-.113.034-.136v-.578c.022-.068.034-.238.034-.51 0-.159.045-.283.136-.374l.204-.204.067-.034h.034l.069-.034h.068l.034-.034h.238c0 .023.01.034.034.034h.034l.034.034h.034c0 .023.01.034.034.034v.034h.034l.034.034.034.068v.034l.034.034c0 .068.022.102.067.102v.068c.023.023.035.057.035.102l.034.034v.068l.034.034c.067.385.113.657.136.816v.238c0 .045.01.08.034.102v.51c0 .227.01.374.034.442 0 .25-.012.408-.034.476v.918l.034 2.006.034 4.692zm-.273 8.466v-.17.17zm16.04 8.738a41.244 41.244 0 01-.034-1.972c-.023-.43-.034-1.1-.034-2.006v-1.972c0-1.745-.057-3.751-.17-6.018a32.241 32.241 0 01-.068-1.7l-.068-1.734v-.544c0-.227-.012-.397-.034-.51v-1.904c0-.227.011-.397.034-.51v-.544c0-.227.011-.397.034-.51v-.714c.022-.113.034-.283.034-.51v-2.584c0-.408-.012-.714-.034-.918 0-.861-.034-1.598-.102-2.21v-.068c-.023 0-.034-.011-.034-.034a5.12 5.12 0 00-.136-.85c-.023 0-.034-.011-.034-.034-.204-.272-.397-.408-.578-.408a.913.913 0 00-.544.17c-.295.25-.442.68-.442 1.292 0 1.61.09 3.978.272 7.106.181 3.083.272 5.417.272 7.004 0 1.156-.023 2.89-.068 5.202a131.012 131.012 0 00-.102 5.168v1.734c0 .884.022 1.96.068 3.23v1.462l-.68-.068-1.428-.102h-.748v-1.7c0-1.632-.034-3.287-.102-4.964a207.02 207.02 0 01-.204-5.304 3.078 3.078 0 01-.034-.544V30.568a1.81 1.81 0 01-.034-.408v-1.394c0-.385.022-.918.068-1.598.045-.68.068-1.167.068-1.462 0-.204-.023-.555-.068-1.054l-.068-.816a7.579 7.579 0 01-.034-.85v-1.02a44.544 44.544 0 01-.068-1.972 9.524 9.524 0 01-.034-.952v-.476c0-.204.011-.363.034-.476v-.51c0-.204.011-.363.034-.476l.068-.986c0-.453.011-.793.034-1.02v-.85c0-.181-.034-.351-.102-.51 0-.09-.034-.147-.102-.17a.552.552 0 00-.272-.238c-.091-.045-.227-.068-.408-.068a.974.974 0 00-.442.102c-.272.159-.408.408-.408.748v.408c0 .181.011.317.034.408 0 .363.011.623.034.782l.068.816c.09.703.136 1.44.136 2.21v1.156c0 .521.011.907.034 1.156v2.754l-.068.782c-.046.227-.068.42-.068.578v.306c0 .408.011.703.034.884l.068.918c.068.499.102 1.043.102 1.632v3.468l-.034 6.936c-.023.77-.034 1.938-.034 3.502v1.156h-3.026c.022-.068.034-.193.034-.374a1.192 1.192 0 01-.034-.34v-2.312c0-.997-.012-1.734-.034-2.21v-2.312a56.258 56.258 0 01-.034-2.312c0-1.904-.046-3.627-.136-5.168a40.58 40.58 0 01-.068-1.972l-.102-1.938v-.612a4.04 4.04 0 00-.034-.612v-2.346c0-.317.011-.555.034-.714v-.952c.022-.159.034-.385.034-.68v-3.57a10.01 10.01 0 01-.034-.986c0-.975-.068-1.677-.204-2.108v-.102c0-.113-.023-.238-.068-.374-.046-.136-.102-.227-.17-.272-.068-.045-.227-.113-.476-.204l-.408-.034h-.748c-.204 0-.42.034-.646.102a1.515 1.515 0 00-.544.204c-.091.023-.17.09-.238.204a.656.656 0 00-.102.34c0 .317.17.533.51.646l.306.102c.408.068.623.102.646.102h.306c-.023.521-.012 1.28.034 2.278.09 2.153.181 3.729.272 4.726l.136 2.448c.068 1.587.102 3.173.102 4.76 0 1.133-.023 2.856-.068 5.168a131.88 131.88 0 00-.102 5.202v1.666c0 .748.011 1.315.034 1.7V44.1c-.159 0-.272.011-.34.034-.363.023-.601.147-.714.374-.068.068-.102.181-.102.34 0 .181.056.329.17.442l.136.102.476.17h.136c.068.023.17.034.306.034.09 0 .17.011.238.034.136.204.351.306.646.306.226 0 .385-.068.476-.204.408-.045.714-.068.918-.068l1.836.034c.204.023.498.034.884.034.068.227.238.34.51.34h.17c.022-.023.056-.034.102-.034.045 0 .079-.011.102-.034.136-.045.26-.147.374-.306.725-.045 1.28-.068 1.666-.068.204-.023.487-.034.85-.034.181 0 .453-.023.816-.068l.034.034.102.136a.787.787 0 00.578.238c.204 0 .385-.08.544-.238a.644.644 0 00.238-.51c0-.476.011-.839.034-1.088.022-.25.034-.612.034-1.088v-2.958zm14.802 5.168a17.13 17.13 0 00-.34-3.434 9.635 9.635 0 00-.136-.85 48.331 48.331 0 00-.408-2.516l-.476-3.128c-.362-1.995-.6-3.48-.714-4.454l-.17-1.122c-.226-1.405-.34-2.493-.34-3.264 0-.499-.068-1.02-.204-1.564a22.497 22.497 0 01-.238-1.054 19.768 19.768 0 01-.306-1.972 6.007 6.007 0 00-.136-.952c-.068-.317-.124-.578-.17-.782l-.136-.68c-.204-.816-.317-1.53-.34-2.142-.045-1.36-.17-2.539-.374-3.536l-.102-.476a1.927 1.927 0 00-.102-.34 3.158 3.158 0 01-.102-.374c-.045-.43-.408-.646-1.088-.646l-.612-.034c-.476 0-.895.068-1.258.204-.362.113-.544.329-.544.646s.102.521.306.612c.227.09.476.147.748.17.295.023.522.045.68.068-.09.476-.147.805-.17.986-.18.861-.294 1.519-.34 1.972a82.58 82.58 0 00-.476 3.842c-.045.635-.124 1.587-.238 2.856-.045.204-.09.465-.136.782-.022.317-.079.68-.17 1.088a.998.998 0 01-.034.238c0 .09-.022.159-.068.204-.022.023-.079.034-.17.034-.113 0-.249-.011-.408-.034a3.356 3.356 0 00-.476-.034c-.498 0-.838.113-1.02.34a.913.913 0 00-.17.544c0 .521.386.782 1.156.782.25 0 .533-.023.85-.068l-1.394 7.854c-.249 1.428-.6 3.57-1.054 6.426-.022.113-.056.374-.102.782-.022.408-.09.77-.204 1.088 0 .136-.022.306-.068.51-.045.227-.079.408-.102.544l-.034.374c0 .204.034.408.102.612.068.272.193.476.374.612.204.159.431.204.68.136.227-.068.374-.17.442-.306.091-.136.148-.306.17-.51l.102-.408c.182-.748.306-1.428.374-2.04l.238-1.632c.136-1.088.25-1.904.34-2.448.408-2.765.703-4.84.884-6.222.16-.975.374-2.414.646-4.318l.136-1.054c.023-.023.204-.023.544 0 .34.023.601.045.782.068l.714.068h.34c.204 0 .318.034.34.102l.136.544c.182.952.363 2.38.544 4.284l.204 1.938c.046.499.136 1.247.272 2.244l.136 1.122.204 1.428.238 2.108a7.2 7.2 0 01.068.816c.046.521.102 1.054.17 1.598.091.544.216 1.031.374 1.462.091.317.204.555.34.714.136.159.363.238.68.238.227 0 .42-.057.578-.17.16-.09.238-.25.238-.476zm-4.624-19.72c-.158.023-.442.057-.85.102a22.03 22.03 0 01-1.224.034c.114-.68.227-1.575.34-2.686.136-1.11.227-1.881.272-2.312.046-.363.114-1.031.204-2.006.091-.997.193-1.813.306-2.448 0 .159.012.351.034.578.046.227.08.42.102.578l.102.918c.023.25.08.703.17 1.36.136.748.318 2.709.544 5.882z"/>
</svg>
