<svg xmlns="http://www.w3.org/2000/svg" width="20" height="20" fill="none" viewBox="0 0 20 20">
  <mask id="a" width="20" height="20" x="0" y="0" maskUnits="userSpaceOnUse">
    <path fill="#F3F6F6" d="M0 0h20v20H0z"/>
  </mask>
  <g mask="url(#a)">
    <mask id="b" fill="#fff">
      <path d="M2 17a7 7 0 017-7h2a7 7 0 017 7 1 1 0 01-1 1H3a1 1 0 01-1-1z"/>
    </mask>
    <path stroke="#95ABB2" stroke-width="3" d="M2 17a7 7 0 017-7h2a7 7 0 017 7 1 1 0 01-1 1H3a1 1 0 01-1-1z" mask="url(#b)"/>
    <rect width="6.5" height="6.5" x="6.75" y="2.75" stroke="#95ABB2" stroke-width="1.5" rx="3.25"/>
  </g>
</svg>
